<?xml version="1.0" encoding="UTF-8" standalone="no"?>
<svg
   id="Outline"
   viewBox="0 0 24 24"
   width="512"
   height="512"
   version="1.1"
   sodipodi:docname="bolsa-de-la-compra.svg"
   inkscape:export-filename="bolsa-de-la-compra.png"
   inkscape:export-xdpi="5.625"
   inkscape:export-ydpi="5.625"
   inkscape:version="1.4 (86a8ad7, 2024-10-11)"
   xmlns:inkscape="http://www.inkscape.org/namespaces/inkscape"
   xmlns:sodipodi="http://sodipodi.sourceforge.net/DTD/sodipodi-0.dtd"
   xmlns="http://www.w3.org/2000/svg"
   xmlns:svg="http://www.w3.org/2000/svg">
  <defs
     id="defs1" />
  <sodipodi:namedview
     id="namedview1"
     pagecolor="#ffffff"
     bordercolor="#000000"
     borderopacity="0.25"
     inkscape:showpageshadow="2"
     inkscape:pageopacity="0.0"
     inkscape:pagecheckerboard="0"
     inkscape:deskcolor="#d1d1d1"
     inkscape:zoom="0.7890625"
     inkscape:cx="256"
     inkscape:cy="255.36634"
     inkscape:window-width="1366"
     inkscape:window-height="705"
     inkscape:window-x="-8"
     inkscape:window-y="-8"
     inkscape:window-maximized="1"
     inkscape:current-layer="Outline" />
  <path
     d="M21,6H18A6,6,0,0,0,6,6H3A3,3,0,0,0,0,9V19a5.006,5.006,0,0,0,5,5H19a5.006,5.006,0,0,0,5-5V9A3,3,0,0,0,21,6ZM12,2a4,4,0,0,1,4,4H8A4,4,0,0,1,12,2ZM22,19a3,3,0,0,1-3,3H5a3,3,0,0,1-3-3V9A1,1,0,0,1,3,8H6v2a1,1,0,0,0,2,0V8h8v2a1,1,0,0,0,2,0V8h3a1,1,0,0,1,1,1Z"
     id="path1" />
</svg>
