<?xml version="1.0" encoding="UTF-8" standalone="no"?>
<svg
   id="Layer_1"
   data-name="Layer 1"
   viewBox="0 0 14.000003 14"
   version="1.1"
   sodipodi:docname="arrow.svg"
   width="14.000003"
   height="14"
   inkscape:version="1.4 (86a8ad7, 2024-10-11)"
   xmlns:inkscape="http://www.inkscape.org/namespaces/inkscape"
   xmlns:sodipodi="http://sodipodi.sourceforge.net/DTD/sodipodi-0.dtd"
   xmlns="http://www.w3.org/2000/svg"
   xmlns:svg="http://www.w3.org/2000/svg">
  <defs
     id="defs1" />
  <sodipodi:namedview
     id="namedview1"
     pagecolor="#ffffff"
     bordercolor="#000000"
     borderopacity="0.25"
     inkscape:showpageshadow="2"
     inkscape:pageopacity="0.0"
     inkscape:pagecheckerboard="0"
     inkscape:deskcolor="#d1d1d1"
     inkscape:zoom="23.041667"
     inkscape:cx="7.0090416"
     inkscape:cy="5.9674503"
     inkscape:window-width="1366"
     inkscape:window-height="697"
     inkscape:window-x="-8"
     inkscape:window-y="-8"
     inkscape:window-maximized="1"
     inkscape:current-layer="Layer_1" />
  <path
     d="m 14,6.9567846 c 10e-4,0.664 -0.255,1.294 -0.722,1.766 L 9.36,12.803785 c -0.098,0.102 -0.229,0.153 -0.36,0.153 -0.125,0 -0.249,-0.046 -0.347,-0.14 -0.199,-0.19 -0.205,-0.508 -0.014,-0.707 l 3.923,-4.0860004 c 0.163,-0.165 0.282,-0.358 0.355,-0.567 H 0.5 c -0.276,0 -0.5,-0.224 -0.5,-0.5 0,-0.276 0.224,-0.5 0.5,-0.5 h 12.411 c -0.075,-0.208 -0.196,-0.398 -0.358,-0.559 l -3.954,-4.049 c -0.193,-0.197 -0.189,-0.514 0.008,-0.707 0.198,-0.19199998 0.515,-0.18899998 0.707,0.009 l 3.948,4.043 c 0.469,0.462 0.732,1.096 0.737,1.763 z"
     id="path1" />
</svg>
