<?xml version="1.0" encoding="UTF-8" standalone="no"?>
<svg
   id="Layer_1"
   data-name="Layer 1"
   viewBox="0 0 14 14"
   version="1.1"
   sodipodi:docname="arrow-small-left.svg"
   width="14"
   height="14"
   inkscape:version="1.4 (86a8ad7, 2024-10-11)"
   xmlns:inkscape="http://www.inkscape.org/namespaces/inkscape"
   xmlns:sodipodi="http://sodipodi.sourceforge.net/DTD/sodipodi-0.dtd"
   xmlns="http://www.w3.org/2000/svg"
   xmlns:svg="http://www.w3.org/2000/svg">
  <defs
     id="defs1" />
  <sodipodi:namedview
     id="namedview1"
     pagecolor="#ffffff"
     bordercolor="#000000"
     borderopacity="0.25"
     inkscape:showpageshadow="2"
     inkscape:pageopacity="0.0"
     inkscape:pagecheckerboard="0"
     inkscape:deskcolor="#d1d1d1"
     inkscape:zoom="23.041667"
     inkscape:cx="7.0090416"
     inkscape:cy="5.9674503"
     inkscape:window-width="1366"
     inkscape:window-height="697"
     inkscape:window-x="-8"
     inkscape:window-y="-8"
     inkscape:window-maximized="1"
     inkscape:current-layer="Layer_1" />
  <path
     d="m 0.0011547,6.9559157 c -0.001999999,0.017 -9.9999946e-4,-0.013 0,0 z m 13.5000003,-0.5 H 1.0921547 c 0.074,-0.206 0.195,-0.4 0.362,-0.564 l 3.948,-4.043 c 0.193,-0.198 0.189,-0.515 -0.009,-0.707 -0.197,-0.19299997 -0.513,-0.18799997 -0.707,0.008 l -3.941,4.037 c -0.479,0.473 -0.744,1.141 -0.744,1.77 0.007,0.624 0.247,1.285 0.716,1.761 l 3.923,4.0860003 c 0.098,0.102 0.229,0.153 0.361,0.153 0.125,0 0.25,-0.046 0.346,-0.14 0.199,-0.19 0.206,-0.508 0.015,-0.707 l -3.928,-4.0910003 c -0.162,-0.164 -0.279,-0.357 -0.349,-0.562 H 13.501155 c 0.276,0 0.5,-0.224 0.5,-0.5 0,-0.276 -0.224,-0.5 -0.5,-0.5 z"
     id="path1" />
</svg>
