<?xml version="1.0" encoding="UTF-8" standalone="no"?>
<svg
   version="1.0"
   width="100.44402mm"
   height="76.129448mm"
   viewBox="0 0 284.72321 215.80001"
   preserveAspectRatio="xMidYMid"
   id="svg12"
   sodipodi:docname="Logo.svg"
   inkscape:export-filename="Logo-Vectorizado2.png"
   inkscape:export-xdpi="96"
   inkscape:export-ydpi="96"
   inkscape:version="1.4 (86a8ad7, 2024-10-11)"
   xmlns:inkscape="http://www.inkscape.org/namespaces/inkscape"
   xmlns:sodipodi="http://sodipodi.sourceforge.net/DTD/sodipodi-0.dtd"
   xmlns="http://www.w3.org/2000/svg"
   xmlns:svg="http://www.w3.org/2000/svg">
  <sodipodi:namedview
     id="namedview1"
     pagecolor="#ffffff"
     bordercolor="#000000"
     borderopacity="0.25"
     inkscape:showpageshadow="2"
     inkscape:pageopacity="0.0"
     inkscape:pagecheckerboard="0"
     inkscape:deskcolor="#d1d1d1"
     inkscape:document-units="pt"
     inkscape:zoom="0.49537351"
     inkscape:cx="651.02391"
     inkscape:cy="323.99795"
     inkscape:window-width="1366"
     inkscape:window-height="697"
     inkscape:window-x="-8"
     inkscape:window-y="-8"
     inkscape:window-maximized="1"
     inkscape:current-layer="g12" />
  <defs
     id="defs12" />
  <metadata
     id="metadata1">
Created by potrace 1.16, written by Peter Selinger 2001-2019
</metadata>
  <g
     transform="matrix(0.1,0,0,-0.1,-98.999414,367.8)"
     fill="#000000"
     stroke="none"
     id="g12">
    <path
       d="m 1441,3669 c -150,-29 -366,-192 -426,-321 -33,-70 -33,-148 -2,-202 30,-54 113,-119 183,-145 69,-26 179,-27 179,-1 0,11 -17,17 -61,22 -73,8 -134,36 -187,87 -51,48 -67,80 -67,137 0,86 60,176 179,265 162,123 294,148 339,65 22,-42 28,-226 12,-431 -17,-227 4,-333 74,-376 42,-26 127,-25 181,1 58,28 161,139 220,235 58,95 54,89 59,84 8,-8 -15,-183 -27,-204 -7,-12 -57,-62 -112,-112 -170,-154 -291,-311 -310,-399 -15,-74 80,-117 191,-88 71,18 111,42 158,94 67,75 100,161 135,359 13,68 28,122 38,133 9,10 67,54 130,98 115,82 144,119 82,106 -17,-3 -58,-23 -91,-43 -137,-87 -122,-88 -115,8 4,46 11,135 16,198 12,130 6,154 -37,149 -24,-3 -32,-15 -78,-128 -85,-208 -129,-286 -218,-378 -112,-118 -185,-111 -216,20 -10,38 -11,92 -4,212 5,89 9,222 9,296 -1,117 -4,140 -22,175 -28,54 -50,72 -103,84 -51,12 -49,12 -109,0 z m 620,-1036 c -34,-156 -87,-238 -186,-284 -61,-30 -81,-34 -109,-23 -21,8 -21,56 0,97 26,51 121,165 219,262 83,83 90,88 93,64 2,-14 -6,-66 -17,-116 z"
       id="path2"
       style="fill:#000000;fill-opacity:1" />
    <path
       d="m 2538,2686 c -130,-53 -267,-180 -325,-301 -40,-83 -45,-173 -14,-240 33,-73 129,-143 236,-171 53,-15 127,-18 138,-7 13,13 -16,33 -47,33 -94,0 -223,73 -263,149 -34,66 -32,140 9,222 44,91 169,213 267,262 117,59 166,48 194,-45 49,-157 48,-404 -4,-793 -11,-82 -23,-178 -26,-212 -6,-62 -5,-63 19,-63 14,0 30,6 36,13 6,6 38,104 72,217 122,402 220,614 332,716 38,34 42,35 54,20 23,-32 27,-191 10,-372 -9,-94 -14,-179 -10,-188 8,-21 48,-21 69,1 9,9 53,70 97,136 85,127 152,207 173,207 7,0 16,-7 19,-16 9,-24 7,-139 -5,-259 -16,-161 -2,-205 67,-205 27,0 43,9 77,43 50,50 129,166 124,181 -8,25 -33,7 -101,-74 -40,-47 -79,-85 -87,-85 -11,0 -14,13 -13,55 10,380 10,356 -12,387 -36,49 -93,44 -150,-14 -20,-19 -67,-78 -106,-129 -38,-52 -70,-94 -71,-94 -1,0 -2,96 -2,214 0,202 -1,216 -21,243 -16,21 -31,29 -60,31 -97,7 -218,-154 -335,-445 -29,-73 -55,-131 -57,-129 -2,2 2,82 8,178 18,273 -9,459 -75,525 -30,30 -38,33 -96,33 -44,0 -82,-8 -121,-24 z"
       id="path3"
       style="fill:#000000;fill-opacity:1" />
    <path
       id="path7"
       style="fill:none;stroke:#000000;stroke-width:60;stroke-linecap:round;paint-order:stroke fill markers"
       transform="scale(1,-1)"
       d="M 2596.1086,-1626.0718 A 1036.8049,1006.4891 0 0 1 1572.0274,-1886.7544 1036.8049,1006.4891 0 0 1 1317.619,-2884.3869" />
    <path
       id="path7-9"
       style="fill:none;stroke:#000000;stroke-width:60;stroke-linecap:round;paint-order:stroke fill markers"
       transform="scale(1,-1)"
       d="m 1761.9342,-3454.7914 a 1036.8049,1006.4891 0 0 1 1041.1421,-19.9997 1036.8049,1006.4891 0 0 1 533.895,867.9257" />
  </g>
</svg>
