<?xml version="1.0" encoding="UTF-8" standalone="no"?>
<svg
   version="1.0"
   width="318.38223mm"
   height="76.129448mm"
   viewBox="0 0 902.50081 215.80001"
   preserveAspectRatio="xMidYMid"
   id="svg12"
   sodipodi:docname="Logo-completo.svg"
   inkscape:export-filename="Logo-Vectorizado2.png"
   inkscape:export-xdpi="96"
   inkscape:export-ydpi="96"
   inkscape:version="1.4 (e7c3feb100, 2024-10-09)"
   xmlns:inkscape="http://www.inkscape.org/namespaces/inkscape"
   xmlns:sodipodi="http://sodipodi.sourceforge.net/DTD/sodipodi-0.dtd"
   xmlns="http://www.w3.org/2000/svg"
   xmlns:svg="http://www.w3.org/2000/svg">
  <sodipodi:namedview
     id="namedview1"
     pagecolor="#ffffff"
     bordercolor="#000000"
     borderopacity="0.25"
     inkscape:showpageshadow="2"
     inkscape:pageopacity="0.0"
     inkscape:pagecheckerboard="0"
     inkscape:deskcolor="#d1d1d1"
     inkscape:document-units="pt"
     inkscape:zoom="0.49537351"
     inkscape:cx="651.02391"
     inkscape:cy="322.98861"
     inkscape:window-width="1346"
     inkscape:window-height="723"
     inkscape:window-x="9"
     inkscape:window-y="9"
     inkscape:window-maximized="1"
     inkscape:current-layer="g12" />
  <defs
     id="defs12" />
  <metadata
     id="metadata1">
Created by potrace 1.16, written by Peter Selinger 2001-2019
</metadata>
  <g
     transform="matrix(0.1,0,0,-0.1,-98.999414,367.8)"
     fill="#000000"
     stroke="none"
     id="g12">
    <path
       d="m 1441,3669 c -150,-29 -366,-192 -426,-321 -33,-70 -33,-148 -2,-202 30,-54 113,-119 183,-145 69,-26 179,-27 179,-1 0,11 -17,17 -61,22 -73,8 -134,36 -187,87 -51,48 -67,80 -67,137 0,86 60,176 179,265 162,123 294,148 339,65 22,-42 28,-226 12,-431 -17,-227 4,-333 74,-376 42,-26 127,-25 181,1 58,28 161,139 220,235 58,95 54,89 59,84 8,-8 -15,-183 -27,-204 -7,-12 -57,-62 -112,-112 -170,-154 -291,-311 -310,-399 -15,-74 80,-117 191,-88 71,18 111,42 158,94 67,75 100,161 135,359 13,68 28,122 38,133 9,10 67,54 130,98 115,82 144,119 82,106 -17,-3 -58,-23 -91,-43 -137,-87 -122,-88 -115,8 4,46 11,135 16,198 12,130 6,154 -37,149 -24,-3 -32,-15 -78,-128 -85,-208 -129,-286 -218,-378 -112,-118 -185,-111 -216,20 -10,38 -11,92 -4,212 5,89 9,222 9,296 -1,117 -4,140 -22,175 -28,54 -50,72 -103,84 -51,12 -49,12 -109,0 z m 620,-1036 c -34,-156 -87,-238 -186,-284 -61,-30 -81,-34 -109,-23 -21,8 -21,56 0,97 26,51 121,165 219,262 83,83 90,88 93,64 2,-14 -6,-66 -17,-116 z"
       id="path2"
       style="fill:#000000;fill-opacity:1" />
    <path
       d="m 2538,2686 c -130,-53 -267,-180 -325,-301 -40,-83 -45,-173 -14,-240 33,-73 129,-143 236,-171 53,-15 127,-18 138,-7 13,13 -16,33 -47,33 -94,0 -223,73 -263,149 -34,66 -32,140 9,222 44,91 169,213 267,262 117,59 166,48 194,-45 49,-157 48,-404 -4,-793 -11,-82 -23,-178 -26,-212 -6,-62 -5,-63 19,-63 14,0 30,6 36,13 6,6 38,104 72,217 122,402 220,614 332,716 38,34 42,35 54,20 23,-32 27,-191 10,-372 -9,-94 -14,-179 -10,-188 8,-21 48,-21 69,1 9,9 53,70 97,136 85,127 152,207 173,207 7,0 16,-7 19,-16 9,-24 7,-139 -5,-259 -16,-161 -2,-205 67,-205 27,0 43,9 77,43 50,50 129,166 124,181 -8,25 -33,7 -101,-74 -40,-47 -79,-85 -87,-85 -11,0 -14,13 -13,55 10,380 10,356 -12,387 -36,49 -93,44 -150,-14 -20,-19 -67,-78 -106,-129 -38,-52 -70,-94 -71,-94 -1,0 -2,96 -2,214 0,202 -1,216 -21,243 -16,21 -31,29 -60,31 -97,7 -218,-154 -335,-445 -29,-73 -55,-131 -57,-129 -2,2 2,82 8,178 18,273 -9,459 -75,525 -30,30 -38,33 -96,33 -44,0 -82,-8 -121,-24 z"
       id="path3"
       style="fill:#000000;fill-opacity:1" />
    <path
       id="path7"
       style="fill:none;stroke:#000000;stroke-width:60;stroke-linecap:round;paint-order:stroke fill markers"
       transform="scale(1,-1)"
       d="M 2596.1086,-1626.0718 A 1036.8049,1006.4891 0 0 1 1572.0274,-1886.7544 1036.8049,1006.4891 0 0 1 1317.619,-2884.3869" />
    <path
       id="path7-9"
       style="fill:none;stroke:#000000;stroke-width:60;stroke-linecap:round;paint-order:stroke fill markers"
       transform="scale(1,-1)"
       d="m 1761.9342,-3454.7914 a 1036.8049,1006.4891 0 0 1 1041.1421,-19.9997 1036.8049,1006.4891 0 0 1 533.895,867.9257" />
    <g
       id="text1"
       style="font-size:1000px;font-family:Montserrat;-inkscape-font-specification:Montserrat;stroke-width:7.5"
       transform="scale(1,-1)"
       aria-label="Yesti moda®">
      <path
         style="font-size:1100px"
         d="m 3964.5807,-2213.5093 v -286 l 18.7,50.6 -326.7,-534.6 h 86.9 l 287.1,469.7 h -46.2 l 287.1,-469.7 h 81.4 l -326.7,534.6 18.7,-50.6 v 286 z m 677.6009,5.5 q -90.2,0 -158.4,-37.4 -68.2,-38.5 -106.7,-104.5 -38.5,-67.1 -38.5,-152.9 0,-85.8 36.3,-151.8 37.4,-66 101.2,-103.4 64.9,-38.5 145.2,-38.5 81.4,0 144.1,37.4 63.8,36.3 100.1,103.4 36.3,66 36.3,152.9 0,5.5 -1.1,12.1 0,5.5 0,12.1 h -502.7 v -58.3 h 460.9 l -30.8,23.1 q 0,-62.7 -27.5,-111.1 -26.4,-49.5 -72.6,-77 -46.2,-27.5 -106.7,-27.5 -59.4,0 -106.7,27.5 -47.3,27.5 -73.7,77 -26.4,49.5 -26.4,113.3 v 12.1 q 0,66 28.6,116.6 29.7,49.5 81.4,78.1 52.8,27.5 119.9,27.5 52.8,0 97.9,-18.7 46.2,-18.7 79.2,-57.2 l 44,50.6 q -38.5,46.2 -96.8,70.4 -57.2,24.2 -126.5,24.2 z m 574.2,0 q -71.5,0 -135.3,-19.8 -63.8,-20.9 -100.1,-51.7 l 35.2,-61.6 q 35.2,26.4 90.2,46.2 55,18.7 115.5,18.7 82.5,0 118.8,-25.3 36.3,-26.4 36.3,-69.3 0,-31.9 -20.9,-49.5 -19.8,-18.7 -52.8,-27.5 -33,-9.9 -73.7,-16.5 -40.7,-6.6 -81.4,-15.4 -39.6,-8.8 -72.6,-25.3 -33,-17.6 -53.9,-47.3 -19.8,-29.7 -19.8,-79.2 0,-47.3 26.4,-84.7 26.4,-37.4 77,-58.3 51.7,-22 125.4,-22 56.1,0 112.2,15.4 56.1,14.3 92.4,38.5 l -34.1,62.7 q -38.5,-26.4 -82.5,-37.4 -44,-12.1 -88,-12.1 -78.1,0 -115.5,27.5 -36.3,26.4 -36.3,68.2 0,33 19.8,51.7 20.9,18.7 53.9,29.7 34.1,9.9 73.7,16.5 40.7,6.6 80.3,16.5 40.7,8.8 73.7,25.3 34.1,15.4 53.9,45.1 20.9,28.6 20.9,75.9 0,50.6 -28.6,88 -27.5,36.3 -81.4,57.2 -52.8,19.8 -128.7,19.8 z m 564.301,0 q -81.4,0 -125.4,-44 -44,-44 -44,-124.3 v -542.3 h 78.1 v 537.9 q 0,50.6 25.3,78.1 26.4,27.5 74.8,27.5 51.7,0 85.8,-29.7 l 27.5,56.1 q -23.1,20.9 -56.1,30.8 -31.9,9.9 -66,9.9 z m -272.8,-518.1 v -64.9 h 357.5 v 64.9 z m 536.8001,512.6 v -577.5 h 78.1 v 577.5 z m 39.6,-705.1 q -24.2,0 -40.7,-16.5 -16.5,-16.5 -16.5,-39.6 0,-23.1 16.5,-38.5 16.5,-16.5 40.7,-16.5 24.2,0 40.7,15.4 16.5,15.4 16.5,38.5 0,24.2 -16.5,40.7 -15.4,16.5 -40.7,16.5 z m 544.4982,705.1 v -577.5 h 74.8 v 156.2 l -12.1,-27.5 q 26.4,-62.7 84.7,-97.9 59.4,-36.3 139.7,-36.3 84.7,0 144.1,42.9 59.4,41.8 77,126.5 l -30.8,-12.1 q 25.3,-70.4 89.1,-113.3 64.9,-44 155.1,-44 70.4,0 122.1,27.5 52.8,26.4 81.4,81.4 29.7,55 29.7,138.6 v 335.5 h -78.1 v -327.8 q 0,-91.3 -44,-137.5 -42.9,-47.3 -122.1,-47.3 -59.4,0 -103.4,25.3 -42.9,24.2 -67.1,71.5 -23.1,46.2 -23.1,112.2 v 303.6 h -78.1 v -327.8 q 0,-91.3 -44,-137.5 -44,-47.3 -123.2,-47.3 -58.3,0 -102.3,25.3 -44,24.2 -68.2,71.5 -23.1,46.2 -23.1,112.2 v 303.6 z m 1402.5008,5.5 q -83.6,0 -150.7,-37.4 -66,-38.5 -104.5,-104.5 -38.5,-67.1 -38.5,-152.9 0,-86.9 38.5,-152.9 38.5,-66 104.5,-103.4 66,-37.4 150.7,-37.4 85.8,0 151.8,37.4 67.1,37.4 104.5,103.4 38.5,66 38.5,152.9 0,85.8 -38.5,152.9 -37.4,66 -104.5,104.5 -67.1,37.4 -151.8,37.4 z m 0,-69.3 q 62.7,0 111.1,-27.5 48.4,-28.6 75.9,-79.2 28.6,-51.7 28.6,-118.8 0,-68.2 -28.6,-118.8 -27.5,-50.6 -75.9,-78.1 -48.4,-28.6 -110,-28.6 -61.6,0 -110,28.6 -48.4,27.5 -77,78.1 -28.6,50.6 -28.6,118.8 0,67.1 28.6,118.8 28.6,50.6 77,79.2 48.4,27.5 108.9,27.5 z m 684.2012,69.3 q -82.5,0 -148.5,-37.4 -64.9,-37.4 -102.3,-103.4 -37.4,-67.1 -37.4,-154 0,-88 37.4,-154 37.4,-66 102.3,-102.3 66,-37.4 148.5,-37.4 75.9,0 135.3,34.1 60.5,34.1 95.7,100.1 36.3,64.9 36.3,159.5 0,93.5 -35.2,159.5 -35.2,66 -95.7,101.2 -59.4,34.1 -136.4,34.1 z m 5.5,-69.3 q 61.6,0 110,-27.5 49.5,-28.6 77,-79.2 28.6,-51.7 28.6,-118.8 0,-68.2 -28.6,-118.8 -27.5,-50.6 -77,-78.1 -48.4,-28.6 -110,-28.6 -60.5,0 -108.9,28.6 -48.4,27.5 -77,78.1 -28.6,50.6 -28.6,118.8 0,67.1 28.6,118.8 28.6,50.6 77,79.2 48.4,27.5 108.9,27.5 z m 217.8,63.8 v -173.8 l 7.7,-116.6 -11,-116.6 v -409.2 h 78.1 v 816.2 z m 654.4993,0 v -127.6 l -3.3,-20.9 v -213.4 q 0,-73.7 -41.8,-113.3 -40.7,-39.6 -122.1,-39.6 -56.1,0 -106.7,18.7 -50.6,18.7 -85.8,49.5 l -35.2,-58.3 q 44,-37.4 105.6,-57.2 61.6,-20.9 129.8,-20.9 112.2,0 172.7,56.1 61.6,55 61.6,168.3 v 358.6 z m -199.1,5.5 q -64.9,0 -113.3,-20.9 -47.3,-22 -72.6,-59.4 -25.3,-38.5 -25.3,-88 0,-45.1 20.9,-81.4 22,-37.4 70.4,-59.4 49.5,-23.1 132,-23.1 h 199.1 v 58.3 h -196.9 q -83.6,0 -116.6,29.7 -31.9,29.7 -31.9,73.7 0,49.5 38.5,79.2 38.5,29.7 107.8,29.7 66,0 113.3,-29.7 48.4,-30.8 70.4,-88 l 17.6,53.9 q -22,57.2 -77,91.3 -53.9,34.1 -136.4,34.1 z"
         id="path4" />
      <path
         style="font-weight:300;font-size:320px;-inkscape-font-specification:'Montserrat Light'"
         d="m 9901.7222,-2212.5493 q -24,0 -44.48,-8.64 -20.48,-8.64 -35.84,-24 -15.36,-15.68 -24,-36.16 -8.32,-20.48 -8.32,-44.16 0,-23.68 8.64,-44.16 8.64,-20.48 24,-35.84 15.36,-15.68 35.84,-24.32 20.8,-8.64 44.8,-8.64 24,0 44.48,8.64 20.8,8.32 35.84,23.68 15.36,15.36 23.6798,35.84 8.64,20.16 8.64,44.16 0,24 -8.64,44.8 -8.6398,20.48 -24.3198,36.16 -15.36,15.36 -35.84,24 -20.48,8.64 -44.48,8.64 z m 44.16,-47.36 -32.96,-50.88 h 13.44 l 32.96,50.88 z m -44.16,38.08 q 21.76,0 40.64,-8 18.88,-8.32 32.96,-22.4 14.08,-14.08 22.08,-32.96 7.9998,-19.2 7.9998,-40.96 0,-22.08 -7.9998,-40.64 -7.68,-18.56 -21.76,-32.64 -13.76,-14.08 -32.64,-21.76 -18.56,-8 -40.64,-8 -22.08,0 -41.28,8 -18.88,8 -32.96,22.4 -13.76,14.08 -21.76,32.96 -7.68,18.56 -7.68,40.32 0,21.76 7.68,40.64 8,18.56 21.76,32.96 14.08,14.08 32.96,22.08 18.88,8 40.64,8 z m -42.88,-38.08 v -131.2 h 49.28 q 23.36,0 36.8,11.84 13.44,11.52 13.44,31.04 0,20.16 -13.44,31.68 -13.44,11.52 -36.8,11.52 h -36.8 v 45.12 z m 12.16,-56 h 36.16 q 18.56,0 28.8,-8.32 10.24,-8.64 10.24,-24 0,-15.04 -10.24,-23.36 -10.24,-8.64 -28.8,-8.64 h -36.16 z"
         id="path5" />
    </g>
  </g>
</svg>
